<svg width="26" height="28" viewBox="0 0 26 28" fill="none" xmlns="http://www.w3.org/2000/svg">
<path d="M8.91203 2.33337H5.72652C3.96722 2.33337 2.54102 3.90038 2.54102 5.83337V9.33337C2.54102 11.2664 3.96722 12.8334 5.72652 12.8334H8.91203C10.6713 12.8334 12.0975 11.2664 12.0975 9.33337V5.83337C12.0975 3.90038 10.6713 2.33337 8.91203 2.33337Z" fill="#A5A5A5"/>
<path d="M20.5927 2.33337H17.4072C15.6479 2.33337 14.2217 3.90038 14.2217 5.83337V9.33337C14.2217 11.2664 15.6479 12.8334 17.4072 12.8334H20.5927C22.352 12.8334 23.7782 11.2664 23.7782 9.33337V5.83337C23.7782 3.90038 22.352 2.33337 20.5927 2.33337Z" fill="#A5A5A5"/>
<path d="M8.91203 15.1667H5.72652C3.96722 15.1667 2.54102 16.7338 2.54102 18.6667V22.1667C2.54102 24.0997 3.96722 25.6667 5.72652 25.6667H8.91203C10.6713 25.6667 12.0975 24.0997 12.0975 22.1667V18.6667C12.0975 16.7338 10.6713 15.1667 8.91203 15.1667Z" fill="#A5A5A5"/>
<path d="M20.5927 15.1667H17.4072C15.6479 15.1667 14.2217 16.7338 14.2217 18.6667V22.1667C14.2217 24.0997 15.6479 25.6667 17.4072 25.6667H20.5927C22.352 25.6667 23.7782 24.0997 23.7782 22.1667V18.6667C23.7782 16.7338 22.352 15.1667 20.5927 15.1667Z" fill="#A5A5A5"/>
</svg>
