<svg width="160" height="157" viewBox="0 0 160 157" fill="none" xmlns="http://www.w3.org/2000/svg">
<path d="M87.3767 129.517H72.543L72.1737 80L87.0074 80.0308L87.3767 129.517Z" fill="white"/>
<path d="M79.5906 119.885L55.2782 146.013L104.272 146.105L79.5906 119.885L55.2782 146.013L104.272 146.105L79.5906 119.885Z" fill="white"/>
<path d="M46.8411 81.5855C44.933 81.4624 0.216626 78.3542 0.00119923 45.4862C-0.0603512 37.2077 2.24779 30.4987 6.8333 25.4824C17.42 14.034 36.5314 16.5268 37.3315 16.6191L36.5006 26.221C36.3467 26.1902 20.1282 24.0975 12.1882 32.7145C9.32609 35.8536 7.94121 40.039 7.97198 45.4862C8.15663 69.2447 46.7795 71.9221 47.1796 71.9529L46.8411 81.5855Z" fill="#E56951"/>
<path d="M46.8411 81.5855C44.933 81.4624 0.216626 78.3542 0.00119923 45.4862C-0.0603512 37.2077 2.24779 30.4987 6.8333 25.4824C17.42 14.034 36.5314 16.5268 37.3315 16.6191L36.5006 26.221C36.3467 26.1902 20.1282 24.0975 12.1882 32.7145C9.32609 35.8536 7.94121 40.039 7.97198 45.4862C8.15663 69.2447 46.7795 71.9221 47.1796 71.9529L46.8411 81.5855Z" fill="black" fill-opacity="0.03"/>
<path d="M113.5 81.6779C115.408 81.5856 160.094 78.6004 159.848 45.7325C159.817 37.4847 157.416 30.745 152.738 25.7286C141.998 14.2187 122.917 16.6499 122.117 16.773L123.071 26.3441C123.256 26.3441 139.444 24.3129 147.476 32.93C150.4 36.0691 151.815 40.2545 151.877 45.7325C152.031 69.4602 113.439 72.0453 113.038 72.0453L113.5 81.6779Z" fill="#E56951"/>
<path d="M113.5 81.6779C115.408 81.5856 160.094 78.6004 159.848 45.7325C159.817 37.4847 157.416 30.745 152.738 25.7286C141.998 14.2187 122.917 16.6499 122.117 16.773L123.071 26.3441C123.256 26.3441 139.444 24.3129 147.476 32.93C150.4 36.0691 151.815 40.2545 151.877 45.7325C152.031 69.4602 113.439 72.0453 113.038 72.0453L113.5 81.6779Z" fill="black" fill-opacity="0.03"/>
<path d="M25.4215 0.000514322C23.7288 -0.0302609 22.3132 1.32385 22.2516 3.04726C22.2106 4.85274 22.1901 6.67874 22.1901 8.52525C22.5594 63.459 48.7183 108.052 80.5706 108.114C112.454 108.145 137.997 63.6744 137.659 8.74067C137.638 6.87364 137.587 5.01687 137.505 3.17036C137.443 1.5085 136.058 0.185167 134.366 0.185167L25.4215 0.000514322Z" fill="#F1F1F1"/>
<path d="M43.7328 66.475C42.2864 66.475 40.9015 65.644 40.286 64.2284C35.3004 52.6877 32.2537 39.085 31.4843 24.8977C31.3612 22.8357 32.9615 21.0508 35.0235 20.9584C37.0854 20.8353 38.8704 22.4356 38.9935 24.4976C39.7013 37.8232 42.5326 50.5026 47.1797 61.2432C48.0106 63.1205 47.1489 65.3363 45.2408 66.1672C44.7484 66.3826 44.256 66.475 43.7328 66.475Z" fill="white"/>
<path d="M35.085 19.0504C35.0439 19.0504 35.0132 19.0504 34.9926 19.0504C32.9307 19.0196 31.2688 17.2962 31.3304 15.2343C31.3304 14.1879 31.3612 13.1416 31.4227 12.0029C31.515 9.94094 33.2692 8.30985 35.3312 8.40217C37.3931 8.4945 39.0242 10.2487 38.9319 12.3106C38.8703 13.3878 38.8395 14.4033 38.8088 15.3881C38.778 17.4193 37.1161 19.0504 35.085 19.0504Z" fill="white"/>
<path d="M53.7347 84.3246L53.9194 84.4169L66.1679 76.7231L68.1375 91.0643L68.3222 91.1259L86.3872 52.3799L71.7998 45.6094L53.7347 84.3246Z" fill="#F36F56"/>
<path d="M106.114 84.3246L105.93 84.4169L93.681 76.7231L91.7114 91.0643L91.5267 91.1259L73.4617 52.3799L88.0491 45.6094L106.114 84.3246Z" fill="#F36F56"/>
<path d="M106.114 41.4547C106.114 55.919 94.3888 67.6444 79.9244 67.6444C65.4601 67.6444 53.7347 55.919 53.7347 41.4547C53.7347 26.9904 65.4601 15.265 79.9244 15.265C94.3888 15.265 106.114 26.9904 106.114 41.4547Z" fill="#F36F56"/>
<path d="M101.19 41.4547C101.19 53.2109 91.6498 62.7204 79.9245 62.7204C68.1991 62.7204 58.6588 53.2109 58.6588 41.4547C58.6588 29.7294 68.1991 20.2198 79.9245 20.2198C91.6498 20.2198 101.19 29.7294 101.19 41.4547Z" fill="white"/>
<path d="M83.9253 54.6265H78.1395V35.3305H75.9237V31.4836C76.7649 31.4836 77.4727 31.1245 78.0472 30.4064C78.6217 29.6883 78.9089 28.9908 78.9089 28.3137H83.9253V54.6265Z" fill="#F36F56"/>
<path d="M110.55 155.43C110.55 155.738 110.304 156.015 109.996 156.015H49.5539C49.2462 156.015 49 155.738 49 155.43V146.444C49 146.136 49.2462 145.89 49.5539 145.89H109.996C110.304 145.89 110.55 146.136 110.55 146.444V155.43Z" fill="white"/>
</svg>
