<svg width="206" height="453" viewBox="0 0 206 453" fill="none" xmlns="http://www.w3.org/2000/svg">
<circle cx="3.37986" cy="3.37925" r="3.37925" fill="#70C217"/>
<circle cx="52.9414" cy="3.37925" r="3.37925" fill="#70C217"/>
<circle cx="102.504" cy="3.37925" r="3.37925" fill="#70C217"/>
<circle cx="152.066" cy="3.37925" r="3.37925" fill="#70C217"/>
<circle cx="201.629" cy="3.37925" r="3.37925" fill="#70C217"/>
<circle cx="3.37913" cy="52.9415" r="3.37925" fill="#70C217"/>
<circle cx="52.9414" cy="52.9415" r="3.37925" fill="#70C217"/>
<circle cx="102.504" cy="52.9415" r="3.37925" fill="#70C217"/>
<circle cx="152.066" cy="52.9415" r="3.37925" fill="#70C217"/>
<circle cx="201.629" cy="52.9415" r="3.37925" fill="#70C217"/>
<circle cx="3.37913" cy="102.504" r="3.37925" fill="#70C217"/>
<circle cx="52.9414" cy="102.504" r="3.37925" fill="#70C217"/>
<circle cx="102.504" cy="102.504" r="3.37925" fill="#70C217"/>
<circle cx="152.066" cy="102.504" r="3.37925" fill="#70C217"/>
<circle cx="201.629" cy="102.504" r="3.37925" fill="#70C217"/>
<circle cx="3.37913" cy="152.067" r="3.37925" fill="#70C217"/>
<circle cx="52.9414" cy="152.067" r="3.37925" fill="#70C217"/>
<circle cx="102.504" cy="152.067" r="3.37925" fill="#70C217"/>
<circle cx="152.066" cy="152.067" r="3.37925" fill="#70C217"/>
<circle cx="201.629" cy="152.067" r="3.37925" fill="#70C217"/>
<circle cx="3.37913" cy="201.629" r="3.37925" fill="#70C217"/>
<circle cx="52.9414" cy="201.629" r="3.37925" fill="#70C217"/>
<circle cx="102.504" cy="201.629" r="3.37925" fill="#70C217"/>
<circle cx="152.066" cy="201.629" r="3.37925" fill="#70C217"/>
<circle cx="201.629" cy="201.629" r="3.37925" fill="#70C217"/>
<circle cx="3.37913" cy="251.191" r="3.37925" fill="#70C217"/>
<circle cx="52.9414" cy="251.191" r="3.37925" fill="#70C217"/>
<circle cx="102.504" cy="251.191" r="3.37925" fill="#70C217"/>
<circle cx="152.066" cy="251.191" r="3.37925" fill="#70C217"/>
<circle cx="201.629" cy="251.191" r="3.37925" fill="#70C217"/>
<circle cx="3.37913" cy="300.754" r="3.37925" fill="#70C217"/>
<circle cx="52.9414" cy="300.754" r="3.37925" fill="#70C217"/>
<circle cx="102.504" cy="300.754" r="3.37925" fill="#70C217"/>
<circle cx="152.066" cy="300.754" r="3.37925" fill="#70C217"/>
<circle cx="201.629" cy="300.754" r="3.37925" fill="#70C217"/>
<circle cx="3.37913" cy="350.316" r="3.37925" fill="#70C217"/>
<circle cx="52.9414" cy="350.316" r="3.37925" fill="#70C217"/>
<circle cx="102.504" cy="350.316" r="3.37925" fill="#70C217"/>
<circle cx="152.066" cy="350.316" r="3.37925" fill="#70C217"/>
<circle cx="201.629" cy="350.316" r="3.37925" fill="#70C217"/>
<circle cx="3.37913" cy="399.878" r="3.37925" fill="#70C217"/>
<circle cx="52.9414" cy="399.878" r="3.37925" fill="#70C217"/>
<circle cx="102.504" cy="399.878" r="3.37925" fill="#70C217"/>
<circle cx="152.066" cy="399.878" r="3.37925" fill="#70C217"/>
<circle cx="201.629" cy="399.878" r="3.37925" fill="#70C217"/>
<circle cx="3.37913" cy="449.441" r="3.37925" fill="#70C217"/>
<circle cx="52.9414" cy="449.441" r="3.37925" fill="#70C217"/>
<circle cx="102.504" cy="449.441" r="3.37925" fill="#70C217"/>
<circle cx="152.066" cy="449.441" r="3.37925" fill="#70C217"/>
<circle cx="201.629" cy="449.441" r="3.37925" fill="#70C217"/>
</svg>
