<svg width="455" height="207" viewBox="0 0 455 207" fill="none" xmlns="http://www.w3.org/2000/svg">
<circle cx="4.18134" cy="201.875" r="3.37925" transform="rotate(-89.8307 4.18134 201.875)" fill="#70C217"/>
<circle cx="4.32783" cy="152.313" r="3.37925" transform="rotate(-89.8307 4.32783 152.313)" fill="#70C217"/>
<circle cx="4.47431" cy="102.751" r="3.37925" transform="rotate(-89.8307 4.47431 102.751)" fill="#70C217"/>
<circle cx="4.62079" cy="53.1887" r="3.37925" transform="rotate(-89.8307 4.62079 53.1887)" fill="#70C217"/>
<circle cx="4.76728" cy="3.62648" r="3.37925" transform="rotate(-89.8307 4.76728 3.62648)" fill="#70C217"/>
<circle cx="53.7435" cy="202.022" r="3.37925" transform="rotate(-89.8307 53.7435 202.022)" fill="#70C217"/>
<circle cx="53.89" cy="152.46" r="3.37925" transform="rotate(-89.8307 53.89 152.46)" fill="#70C217"/>
<circle cx="54.0364" cy="102.897" r="3.37925" transform="rotate(-89.8307 54.0364 102.897)" fill="#70C217"/>
<circle cx="54.1829" cy="53.3352" r="3.37925" transform="rotate(-89.8307 54.1829 53.3352)" fill="#70C217"/>
<circle cx="54.3294" cy="3.77296" r="3.37925" transform="rotate(-89.8307 54.3294 3.77296)" fill="#70C217"/>
<circle cx="103.306" cy="202.168" r="3.37925" transform="rotate(-89.8307 103.306 202.168)" fill="#70C217"/>
<circle cx="103.452" cy="152.606" r="3.37925" transform="rotate(-89.8307 103.452 152.606)" fill="#70C217"/>
<circle cx="103.599" cy="103.044" r="3.37925" transform="rotate(-89.8307 103.599 103.044)" fill="#70C217"/>
<circle cx="103.745" cy="53.4818" r="3.37925" transform="rotate(-89.8307 103.745 53.4818)" fill="#70C217"/>
<circle cx="103.892" cy="3.91945" r="3.37925" transform="rotate(-89.8307 103.892 3.91945)" fill="#70C217"/>
<circle cx="152.868" cy="202.315" r="3.37925" transform="rotate(-89.8307 152.868 202.315)" fill="#70C217"/>
<circle cx="153.014" cy="152.753" r="3.37925" transform="rotate(-89.8307 153.014 152.753)" fill="#70C217"/>
<circle cx="153.161" cy="103.19" r="3.37925" transform="rotate(-89.8307 153.161 103.19)" fill="#70C217"/>
<circle cx="153.307" cy="53.6283" r="3.37925" transform="rotate(-89.8307 153.307 53.6283)" fill="#70C217"/>
<circle cx="153.454" cy="4.06593" r="3.37925" transform="rotate(-89.8307 153.454 4.06593)" fill="#70C217"/>
<circle cx="202.43" cy="202.461" r="3.37925" transform="rotate(-89.8307 202.43 202.461)" fill="#70C217"/>
<circle cx="202.576" cy="152.899" r="3.37925" transform="rotate(-89.8307 202.576 152.899)" fill="#70C217"/>
<circle cx="202.723" cy="103.337" r="3.37925" transform="rotate(-89.8307 202.723 103.337)" fill="#70C217"/>
<circle cx="202.87" cy="53.7748" r="3.37925" transform="rotate(-89.8307 202.87 53.7748)" fill="#70C217"/>
<circle cx="203.016" cy="4.21241" r="3.37925" transform="rotate(-89.8307 203.016 4.21241)" fill="#70C217"/>
<circle cx="251.992" cy="202.608" r="3.37925" transform="rotate(-89.8307 251.992 202.608)" fill="#70C217"/>
<circle cx="252.139" cy="153.046" r="3.37925" transform="rotate(-89.8307 252.139 153.046)" fill="#70C217"/>
<circle cx="252.285" cy="103.483" r="3.37925" transform="rotate(-89.8307 252.285 103.483)" fill="#70C217"/>
<circle cx="252.432" cy="53.9213" r="3.37925" transform="rotate(-89.8307 252.432 53.9213)" fill="#70C217"/>
<circle cx="252.578" cy="4.3589" r="3.37925" transform="rotate(-89.8307 252.578 4.3589)" fill="#70C217"/>
<circle cx="301.555" cy="202.754" r="3.37925" transform="rotate(-89.8307 301.555 202.754)" fill="#70C217"/>
<circle cx="301.701" cy="153.192" r="3.37925" transform="rotate(-89.8307 301.701 153.192)" fill="#70C217"/>
<circle cx="301.847" cy="103.63" r="3.37925" transform="rotate(-89.8307 301.847 103.63)" fill="#70C217"/>
<circle cx="301.994" cy="54.0678" r="3.37925" transform="rotate(-89.8307 301.994 54.0678)" fill="#70C217"/>
<circle cx="302.14" cy="4.50538" r="3.37925" transform="rotate(-89.8307 302.14 4.50538)" fill="#70C217"/>
<circle cx="351.117" cy="202.901" r="3.37925" transform="rotate(-89.8307 351.117 202.901)" fill="#70C217"/>
<circle cx="351.263" cy="153.339" r="3.37925" transform="rotate(-89.8307 351.263 153.339)" fill="#70C217"/>
<circle cx="351.41" cy="103.776" r="3.37925" transform="rotate(-89.8307 351.41 103.776)" fill="#70C217"/>
<circle cx="351.556" cy="54.2142" r="3.37925" transform="rotate(-89.8307 351.556 54.2142)" fill="#70C217"/>
<circle cx="351.703" cy="4.65187" r="3.37925" transform="rotate(-89.8307 351.703 4.65187)" fill="#70C217"/>
<circle cx="400.679" cy="203.047" r="3.37925" transform="rotate(-89.8307 400.679 203.047)" fill="#70C217"/>
<circle cx="400.825" cy="153.485" r="3.37925" transform="rotate(-89.8307 400.825 153.485)" fill="#70C217"/>
<circle cx="400.972" cy="103.923" r="3.37925" transform="rotate(-89.8307 400.972 103.923)" fill="#70C217"/>
<circle cx="401.118" cy="54.3607" r="3.37925" transform="rotate(-89.8307 401.118 54.3607)" fill="#70C217"/>
<circle cx="401.265" cy="4.79835" r="3.37925" transform="rotate(-89.8307 401.265 4.79835)" fill="#70C217"/>
<circle cx="450.241" cy="203.194" r="3.37925" transform="rotate(-89.8307 450.241 203.194)" fill="#70C217"/>
<circle cx="450.387" cy="153.632" r="3.37925" transform="rotate(-89.8307 450.387 153.632)" fill="#70C217"/>
<circle cx="450.534" cy="104.069" r="3.37925" transform="rotate(-89.8307 450.534 104.069)" fill="#70C217"/>
<circle cx="450.68" cy="54.5072" r="3.37925" transform="rotate(-89.8307 450.68 54.5072)" fill="#70C217"/>
<circle cx="450.827" cy="4.94484" r="3.37925" transform="rotate(-89.8307 450.827 4.94484)" fill="#70C217"/>
</svg>
