<svg width="206" height="355" viewBox="0 0 206 355" fill="none" xmlns="http://www.w3.org/2000/svg">
<circle cx="3.37933" cy="3.37933" r="3.37933" transform="matrix(-1 0 0 1 205.013 0.318848)" fill="#000066"/>
<circle cx="3.37933" cy="3.37933" r="3.37933" transform="matrix(-1 0 0 1 155.449 0.318848)" fill="#000066"/>
<circle cx="3.37933" cy="3.37933" r="3.37933" transform="matrix(-1 0 0 1 105.886 0.318848)" fill="#000066"/>
<circle cx="3.37933" cy="3.37933" r="3.37933" transform="matrix(-1 0 0 1 56.3223 0.318848)" fill="#000066"/>
<circle cx="3.37933" cy="3.37933" r="3.37933" transform="matrix(-1 0 0 1 6.75879 0.318848)" fill="#000066"/>
<circle cx="3.37933" cy="3.37933" r="3.37933" transform="matrix(-1 0 0 1 205.013 49.8824)" fill="#000066"/>
<circle cx="3.37933" cy="3.37933" r="3.37933" transform="matrix(-1 0 0 1 155.449 49.8824)" fill="#000066"/>
<circle cx="3.37933" cy="3.37933" r="3.37933" transform="matrix(-1 0 0 1 105.886 49.8824)" fill="#000066"/>
<circle cx="3.37933" cy="3.37933" r="3.37933" transform="matrix(-1 0 0 1 56.3223 49.8824)" fill="#000066"/>
<circle cx="3.37933" cy="3.37933" r="3.37933" transform="matrix(-1 0 0 1 6.75879 49.8824)" fill="#000066"/>
<circle cx="3.37933" cy="3.37933" r="3.37933" transform="matrix(-1 0 0 1 205.013 99.4458)" fill="#000066"/>
<circle cx="3.37933" cy="3.37933" r="3.37933" transform="matrix(-1 0 0 1 155.449 99.4458)" fill="#000066"/>
<circle cx="3.37933" cy="3.37933" r="3.37933" transform="matrix(-1 0 0 1 105.886 99.4458)" fill="#000066"/>
<circle cx="3.37933" cy="3.37933" r="3.37933" transform="matrix(-1 0 0 1 56.3223 99.4458)" fill="#000066"/>
<circle cx="3.37933" cy="3.37933" r="3.37933" transform="matrix(-1 0 0 1 6.75879 99.4458)" fill="#000066"/>
<circle cx="3.37933" cy="3.37933" r="3.37933" transform="matrix(-1 0 0 1 205.013 149.009)" fill="#000066"/>
<circle cx="3.37933" cy="3.37933" r="3.37933" transform="matrix(-1 0 0 1 155.449 149.009)" fill="#000066"/>
<circle cx="3.37933" cy="3.37933" r="3.37933" transform="matrix(-1 0 0 1 105.886 149.009)" fill="#000066"/>
<circle cx="3.37933" cy="3.37933" r="3.37933" transform="matrix(-1 0 0 1 56.3223 149.009)" fill="#000066"/>
<circle cx="3.37933" cy="3.37933" r="3.37933" transform="matrix(-1 0 0 1 6.75879 149.009)" fill="#000066"/>
<circle cx="3.37933" cy="3.37933" r="3.37933" transform="matrix(-1 0 0 1 205.013 198.573)" fill="#000066"/>
<circle cx="3.37933" cy="3.37933" r="3.37933" transform="matrix(-1 0 0 1 155.449 198.573)" fill="#000066"/>
<circle cx="3.37933" cy="3.37933" r="3.37933" transform="matrix(-1 0 0 1 105.886 198.573)" fill="#000066"/>
<circle cx="3.37933" cy="3.37933" r="3.37933" transform="matrix(-1 0 0 1 56.3223 198.573)" fill="#000066"/>
<circle cx="3.37933" cy="3.37933" r="3.37933" transform="matrix(-1 0 0 1 6.75879 198.573)" fill="#000066"/>
<circle cx="3.37933" cy="3.37933" r="3.37933" transform="matrix(-1 0 0 1 205.013 248.136)" fill="#000066"/>
<circle cx="3.37933" cy="3.37933" r="3.37933" transform="matrix(-1 0 0 1 155.449 248.136)" fill="#000066"/>
<circle cx="3.37933" cy="3.37933" r="3.37933" transform="matrix(-1 0 0 1 105.886 248.136)" fill="#000066"/>
<circle cx="3.37933" cy="3.37933" r="3.37933" transform="matrix(-1 0 0 1 56.3223 248.136)" fill="#000066"/>
<circle cx="3.37933" cy="3.37933" r="3.37933" transform="matrix(-1 0 0 1 6.75879 248.136)" fill="#000066"/>
<circle cx="3.37933" cy="3.37933" r="3.37933" transform="matrix(-1 0 0 1 205.013 297.7)" fill="#000066"/>
<circle cx="3.37933" cy="3.37933" r="3.37933" transform="matrix(-1 0 0 1 155.449 297.7)" fill="#000066"/>
<circle cx="3.37933" cy="3.37933" r="3.37933" transform="matrix(-1 0 0 1 105.886 297.7)" fill="#000066"/>
<circle cx="3.37933" cy="3.37933" r="3.37933" transform="matrix(-1 0 0 1 56.3223 297.7)" fill="#000066"/>
<circle cx="3.37933" cy="3.37933" r="3.37933" transform="matrix(-1 0 0 1 6.75879 297.7)" fill="#000066"/>
<circle cx="3.37933" cy="3.37933" r="3.37933" transform="matrix(-1 0 0 1 205.013 347.263)" fill="#000066"/>
<circle cx="3.37933" cy="3.37933" r="3.37933" transform="matrix(-1 0 0 1 155.449 347.263)" fill="#000066"/>
<circle cx="3.37933" cy="3.37933" r="3.37933" transform="matrix(-1 0 0 1 105.886 347.263)" fill="#000066"/>
<circle cx="3.37933" cy="3.37933" r="3.37933" transform="matrix(-1 0 0 1 56.3223 347.263)" fill="#000066"/>
<circle cx="3.37933" cy="3.37933" r="3.37933" transform="matrix(-1 0 0 1 6.75879 347.263)" fill="#000066"/>
</svg>
