<svg width="206" height="454" viewBox="0 0 206 454" fill="none" xmlns="http://www.w3.org/2000/svg">
<circle cx="3.70648" cy="3.6983" r="3.37933" fill="#000066"/>
<circle cx="53.2697" cy="3.69818" r="3.37933" fill="#000066"/>
<circle cx="102.833" cy="3.69818" r="3.37933" fill="#000066"/>
<circle cx="152.397" cy="3.69818" r="3.37933" fill="#000066"/>
<circle cx="201.96" cy="3.69818" r="3.37933" fill="#000066"/>
<circle cx="3.70648" cy="53.2618" r="3.37933" fill="#000066"/>
<circle cx="53.2697" cy="53.2618" r="3.37933" fill="#000066"/>
<circle cx="102.833" cy="53.2618" r="3.37933" fill="#000066"/>
<circle cx="152.397" cy="53.2618" r="3.37933" fill="#000066"/>
<circle cx="201.96" cy="53.2618" r="3.37933" fill="#000066"/>
<circle cx="3.70648" cy="102.825" r="3.37933" fill="#000066"/>
<circle cx="53.2697" cy="102.825" r="3.37933" fill="#000066"/>
<circle cx="102.833" cy="102.825" r="3.37933" fill="#000066"/>
<circle cx="152.397" cy="102.825" r="3.37933" fill="#000066"/>
<circle cx="201.96" cy="102.825" r="3.37933" fill="#000066"/>
<circle cx="3.70648" cy="152.389" r="3.37933" fill="#000066"/>
<circle cx="53.2697" cy="152.389" r="3.37933" fill="#000066"/>
<circle cx="102.833" cy="152.389" r="3.37933" fill="#000066"/>
<circle cx="152.397" cy="152.389" r="3.37933" fill="#000066"/>
<circle cx="201.96" cy="152.389" r="3.37933" fill="#000066"/>
<circle cx="3.70648" cy="201.952" r="3.37933" fill="#000066"/>
<circle cx="53.2697" cy="201.952" r="3.37933" fill="#000066"/>
<circle cx="102.833" cy="201.952" r="3.37933" fill="#000066"/>
<circle cx="152.397" cy="201.952" r="3.37933" fill="#000066"/>
<circle cx="201.96" cy="201.952" r="3.37933" fill="#000066"/>
<circle cx="3.70648" cy="251.516" r="3.37933" fill="#000066"/>
<circle cx="53.2697" cy="251.516" r="3.37933" fill="#000066"/>
<circle cx="102.833" cy="251.516" r="3.37933" fill="#000066"/>
<circle cx="152.397" cy="251.516" r="3.37933" fill="#000066"/>
<circle cx="201.96" cy="251.516" r="3.37933" fill="#000066"/>
<circle cx="3.70648" cy="301.079" r="3.37933" fill="#000066"/>
<circle cx="53.2697" cy="301.079" r="3.37933" fill="#000066"/>
<circle cx="102.833" cy="301.079" r="3.37933" fill="#000066"/>
<circle cx="152.397" cy="301.079" r="3.37933" fill="#000066"/>
<circle cx="201.96" cy="301.079" r="3.37933" fill="#000066"/>
<circle cx="3.70648" cy="350.643" r="3.37933" fill="#000066"/>
<circle cx="53.2697" cy="350.643" r="3.37933" fill="#000066"/>
<circle cx="102.833" cy="350.643" r="3.37933" fill="#000066"/>
<circle cx="152.397" cy="350.643" r="3.37933" fill="#000066"/>
<circle cx="201.96" cy="350.643" r="3.37933" fill="#000066"/>
<circle cx="3.70648" cy="400.206" r="3.37933" fill="#000066"/>
<circle cx="53.2697" cy="400.206" r="3.37933" fill="#000066"/>
<circle cx="102.833" cy="400.206" r="3.37933" fill="#000066"/>
<circle cx="152.397" cy="400.206" r="3.37933" fill="#000066"/>
<circle cx="201.96" cy="400.206" r="3.37933" fill="#000066"/>
<circle cx="3.70648" cy="449.77" r="3.37933" fill="#000066"/>
<circle cx="53.2697" cy="449.77" r="3.37933" fill="#000066"/>
<circle cx="102.833" cy="449.77" r="3.37933" fill="#000066"/>
<circle cx="152.397" cy="449.77" r="3.37933" fill="#000066"/>
<circle cx="201.96" cy="449.77" r="3.37933" fill="#000066"/>
</svg>
