<svg width="24" height="24" viewBox="0 0 24 24" fill="none" xmlns="http://www.w3.org/2000/svg">
<path d="M20.5401 19.041C20.3901 19.191 20.2001 19.261 20.0101 19.261C19.8201 19.261 19.6301 19.191 19.4801 19.041L14.5301 14.091L15.0601 13.561L15.5901 13.031L20.5401 17.981C20.8301 18.271 20.8301 18.751 20.5401 19.041ZM6.47011 9.27802L12.2701 15.078C12.6601 15.468 12.6601 16.098 12.2701 16.488L11.3701 17.398C10.5601 18.198 9.28011 18.198 8.48011 17.398L4.14011 13.058C3.35011 12.268 3.35011 10.978 4.14011 10.178L5.05011 9.26801C5.44011 8.88802 6.08011 8.88802 6.47011 9.27802Z" fill="#027315"/>
<path d="M18.59 10.19L14.78 13.99C14.38 14.39 13.74 14.39 13.34 13.99L7.56 8.20999C7.16 7.80999 7.16 7.16999 7.56 6.76999L11.37 2.95999C12.16 2.16999 13.45 2.16999 14.25 2.95999L18.59 7.29999C19.38 8.09999 19.38 9.37999 18.59 10.19ZM8 21.75H2C1.59 21.75 1.25 21.41 1.25 21C1.25 20.59 1.59 20.25 2 20.25H8C8.41 20.25 8.75 20.59 8.75 21C8.75 21.41 8.41 21.75 8 21.75Z" fill="#027315"/>
</svg>
