<svg width="133" height="114" viewBox="0 0 133 114" fill="none" xmlns="http://www.w3.org/2000/svg">
<path d="M26.5 55.8437C25.8437 56.25 25.25 56.3437 24.3125 56.2187C23.2187 56.0625 22.9688 56.125 22.6563 56.6562C22.4688 57.0312 22.3125 57.6562 22.3125 58.0937C22.3125 58.5312 22.4688 59.1562 22.625 59.5C22.8125 59.8437 23.4375 60.3437 24.0312 60.5937C24.9688 61 28.75 61.0625 51.375 61.0625H77.625C79.6875 62.9375 79.9063 63.3437 80.0313 64.6562C80.125 65.875 80 66.4375 79.5312 67.2187C79.1562 67.7812 78.375 68.4687 77.7812 68.7187C76.875 69.0937 74.6562 69.1875 64.75 69.1875C55.2812 69.1875 52.4688 69.2812 51.2188 69.625C50.375 69.875 49.0313 70.5312 48.2813 71.125C47.5 71.6875 46.5 72.7187 46.0312 73.4062C45.5625 74.0937 45 75.2812 44.7812 76.0625C44.5312 76.8437 44.375 78.3125 44.4063 79.3437C44.4375 80.7187 44.7187 81.7187 45.4062 83.1562C45.9687 84.3125 46.875 85.5312 47.5625 86.0625C48.1875 86.5937 49.3438 87.3125 50.125 87.7187L51.5312 88.4062L108.437 88.5937C110.156 86.9375 110.438 86.4062 110.438 85.6562C110.438 85.125 110.188 84.4062 109.875 84.125C109.5 83.75 109.062 83.6562 108.25 83.7812C107.5 83.9375 106.875 83.8125 106.312 83.4687C105.5 82.9687 103.188 82.9375 79.125 82.9375L52.7812 82.9687C50.9688 81.75 50.4375 81.0625 50.125 80.1875C49.7188 79.0312 49.7188 78.7187 50.125 77.5625C50.375 76.875 51 75.9687 51.4687 75.625C52.3125 75 52.7812 74.9687 65.2187 74.8125L78.0938 74.6562C81.5 73.0312 82.6875 72.1562 83.25 71.4375C83.7812 70.8125 84.5 69.6562 84.875 68.875C85.375 67.8125 85.5625 66.875 85.5625 65.125C85.5625 63.3437 85.375 62.4062 84.875 61.2187C84.4688 60.3437 83.625 59.125 83 58.4687C82.375 57.8125 81.1562 56.875 80.2812 56.4375L78.7188 55.5937C28.7812 55.2812 27.3437 55.3125 26.5 55.8437Z" fill="#02B0D3"/>
<path fill-rule="evenodd" clip-rule="evenodd" d="M33.4063 0.4375C33.5 0.4375 40.9375 4.125 66.375 16.8438V55.4375H33.25L33.2188 46.5312L34.8438 43.7188C35.7188 42.1875 36.8125 40 37.3125 38.875C37.7813 37.75 38.3438 36 38.5625 34.9688C38.8438 33.5 38.8438 32.625 38.5625 31.0625C38.375 29.9375 37.8125 28.25 37.375 27.3125C36.9063 26.375 35.8125 24.8125 33.2813 22.1562L33.25 11.2813C33.25 5.3125 33.3125 0.4375 33.4063 0.4375ZM99.6562 0.4375C99.75 0.4375 107.188 4.09375 132.625 16.6875V64.9688C132.625 91.5312 132.562 113.25 132.469 113.25C132.375 113.25 124.938 109.562 99.5 96.8438V88.5625H108.625L109.531 87.625C110.156 86.9688 110.438 86.375 110.438 85.6562C110.438 85.125 110.219 84.4062 109.969 84.0938C109.531 83.625 109.719 83.25 111.969 80.0625C113.344 78.125 115.156 75.375 116.031 73.9375C116.906 72.5312 118.219 70.2188 118.938 68.8125C119.625 67.375 120.5 65.4375 120.813 64.5C121.188 63.4375 121.406 61.9375 121.406 60.5938C121.406 59.375 121.187 57.6875 120.937 56.8438C120.687 56 119.875 54.375 119.125 53.2812C118.375 52.1563 117.281 50.875 116.688 50.375C116.094 49.875 114.75 49.0625 113.719 48.5625C112.688 48.0625 110.938 47.5 109.812 47.3125C108.469 47.125 107.094 47.125 105.75 47.3125C104.625 47.5 102.781 48.0938 99.5 49.6562V25.0313C99.5 11.5 99.5625 0.4375 99.6562 0.4375ZM33.25 61.0625H66.375V69.1875H59.5625C54.5938 69.1875 52.375 69.3125 51.2188 69.625C50.3438 69.875 49.0313 70.5313 48.2813 71.125C47.5 71.6875 46.5 72.7188 46.0312 73.4062C45.5625 74.0938 45 75.2812 44.7812 76.0625C44.5312 76.8438 44.375 78.3125 44.4063 79.3438C44.4375 80.7188 44.7188 81.7188 45.4062 83.1875C45.9688 84.3125 46.875 85.5312 47.5313 86.0625C48.1875 86.5938 49.3438 87.3125 50.125 87.6875C51.4375 88.3438 52 88.4062 66.375 88.5625V99.6562C66.375 109.125 66.4375 110.906 66.875 111.781C67.2187 112.5 67.25 112.875 67 113.094C66.7813 113.312 61.4688 110.812 33.25 96.6875V61.0625ZM99.625 74.5C99.6875 74.5938 100.938 76.3438 102.375 78.4062C103.813 80.4688 105.094 82.3438 105.219 82.5625C105.375 82.8437 104.75 82.9375 99.5 82.9375V78.6562C99.5 76.2812 99.5313 74.4062 99.625 74.5ZM66.375 74.8125V82.9375H59.5625C53 82.9688 52.75 82.9375 51.6875 82.2188C50.9688 81.75 50.4375 81.0625 50.125 80.1875C49.7188 79.0312 49.7188 78.7188 50.125 77.5625C50.4375 76.7187 50.9688 76 51.6562 75.5312C52.6875 74.8437 52.9688 74.8125 66.375 74.8125Z" fill="#E6E6E6"/>
<path fill-rule="evenodd" clip-rule="evenodd" d="M33.0312 0.468776C33.1562 0.437526 33.25 5.34377 33.25 22.3125L32.0625 21.5313C31.4375 21.125 30.2812 20.5625 29.5 20.2813C28.7187 20.0313 27.25 19.7188 26.2187 19.625C25.1562 19.5 23.5312 19.5938 22.4687 19.8125C21.4375 20.0313 19.8125 20.5625 18.875 21C17.9375 21.4688 16.375 22.5938 15.4062 23.5625C14.4375 24.5 13.3125 25.9688 12.875 26.8438C12.4375 27.6875 11.9062 29.0313 11.6875 29.8125C11.5 30.5938 11.3125 32.0625 11.3125 33.0938C11.2812 34.125 11.5312 35.75 11.8437 36.6875C12.1562 37.625 13.0312 39.6563 13.8125 41.2188C14.5937 42.75 16.0938 45.4375 17.1875 47.1563C18.25 48.875 20.0625 51.5313 21.1875 53.0938C23.0625 55.6875 23.1875 55.9688 22.75 56.5313C22.5 56.875 22.3125 57.5313 22.3125 58C22.3125 58.5 22.4375 59.1563 22.625 59.5C22.7812 59.8438 23.4375 60.3438 24.0312 60.5938C24.8125 60.9375 26.2812 61.0625 33.25 61.0625V96.8438L17.0625 105.031C8.1875 109.531 0.718752 113.25 0.500002 113.25C0.218752 113.25 0.125 103.344 0 16.625L16.375 8.56252C25.4062 4.12502 32.875 0.468776 33 0.468776H33.0312ZM99.2812 0.468776C99.4375 0.437526 99.5312 11.5 99.5312 49.6563L97.9063 51.375C97.0313 52.3125 95.875 53.9375 95.4063 54.9688C94.9375 56 94.375 57.75 94.1875 58.875C93.9375 60.2813 93.9375 61.375 94.1563 62.4688C94.3125 63.3125 94.9062 65.0938 95.4375 66.375C95.9688 67.6563 97.125 69.9688 99.6875 74.3438L99.5312 82.9375H66.4062V74.8125L78.125 74.6563L80.25 73.625C81.5313 73.0313 82.7187 72.1563 83.2812 71.4375C83.8125 70.8125 84.5312 69.6563 84.9062 68.875C85.4062 67.8125 85.5938 66.875 85.5938 65.125C85.5938 63.3438 85.4062 62.4063 84.9062 61.2188C84.5 60.3438 83.6562 59.125 83.0312 58.4688C82.4062 57.8125 81.1562 56.875 80.3125 56.4375C78.7812 55.625 78.5937 55.5938 66.4062 55.4375L66.2812 16.8438L82.6562 8.65627C91.6875 4.15627 99.1562 0.468776 99.2812 0.468776ZM33.1875 46.6875C33.25 46.6875 33.2812 48.6563 33.2812 55.4375H30.5312C29.0312 55.4375 27.7187 55.375 27.5625 55.2813C27.4375 55.1875 28.4063 53.625 29.7188 51.75C31.0313 49.9063 32.3125 48.0313 32.5937 47.5313C32.8437 47.0625 33.125 46.6875 33.1875 46.6875ZM66.4062 61.0625H77.6562L78.7812 62.0625C79.7188 62.9375 79.9375 63.3438 80.0625 64.6563C80.1562 65.875 80.0312 66.4375 79.5625 67.2188C79.1875 67.7813 78.4062 68.4688 77.8125 68.7188C77 69.0625 75.4375 69.1875 66.4062 69.1875V61.0625ZM66.4062 88.5625H99.5312L99.375 96.8438L83.75 104.719C75.1562 109.031 67.9375 112.594 67.7187 112.594C67.5312 112.625 67.125 112.188 66.875 111.688C66.5 110.906 66.4062 108.906 66.4062 99.6563V88.5625Z" fill="white"/>
<path d="M21.8437 19.9375C20.9687 20.1563 19.5625 20.6563 18.7187 21.0625C17.8437 21.4688 16.375 22.5938 15.4062 23.5625C14.4375 24.5 13.3125 26 12.875 26.8438C12.4375 27.7188 11.9062 29.0313 11.6875 29.8125C11.5 30.5938 11.3125 32.0625 11.3125 33.0938C11.2812 34.125 11.5312 35.75 11.8437 36.6875C12.1562 37.625 13.0312 39.6875 13.8125 41.2188C14.5937 42.7813 15.9062 45.1563 16.7812 46.5313C17.625 47.9063 19.4687 50.625 20.875 52.5625C22.9375 55.4063 23.5937 56.0938 24.3437 56.25C24.8437 56.3438 25.625 56.2813 26.0625 56.0938C26.5 55.9063 27.7812 54.4688 28.9062 52.875C30.0312 51.2813 31.375 49.3438 31.9062 48.5625C32.4375 47.7813 33.625 45.8125 34.5625 44.1875C35.5 42.5625 36.7187 40.25 37.2187 39.0313C37.75 37.8125 38.3437 36 38.5625 34.9688C38.8437 33.5 38.8437 32.625 38.5625 31.0625C38.375 29.9375 37.8437 28.25 37.375 27.3125C36.9375 26.3438 35.75 24.7813 34.6875 23.6875C33.625 22.6563 32 21.4375 31.0625 20.9688C30.125 20.5 28.5625 20 27.625 19.8125C26.6875 19.625 25.3437 19.5 24.6562 19.5313C23.9687 19.5313 22.6875 19.7188 21.8437 19.9375ZM105.437 47.3438C104.5 47.5 102.844 48.0625 101.75 48.5625C100.625 49.125 99.0937 50.2188 98.0937 51.2188C97.0937 52.2188 95.9687 53.75 95.4375 54.9063C94.9375 55.9688 94.3437 57.75 94.1562 58.875C93.9062 60.2813 93.9062 61.375 94.125 62.4688C94.2812 63.3438 94.9062 65.1563 95.4687 66.5313C96.0312 67.9063 97.5625 70.7813 98.875 72.9375C100.156 75.0938 102.25 78.2813 103.5 80.0625C104.719 81.8125 106.031 83.4063 106.375 83.5625C106.719 83.7188 107.344 83.875 107.781 83.875C108.219 83.875 108.812 83.75 109.094 83.5938C109.406 83.4375 110.719 81.7813 112.062 79.9375C113.375 78.0625 115.156 75.375 116.031 73.9688C116.906 72.5313 118.219 70.2188 118.937 68.8125C119.625 67.375 120.5 65.4375 120.812 64.5C121.156 63.5313 121.406 61.9063 121.406 60.75C121.406 59.625 121.25 58.0938 121.062 57.3125C120.844 56.5313 120.469 55.4688 120.219 54.9688C119.937 54.4688 119.187 53.2813 118.531 52.4063C117.844 51.4375 116.469 50.2188 115.344 49.4688C114.281 48.7813 112.687 48.0313 111.844 47.7813C110.969 47.5625 109.562 47.2813 108.719 47.2188C107.844 47.125 106.375 47.1875 105.437 47.3438Z" fill="#FF6C4C"/>
<path d="M24 30.75C23.625 30.9062 23.0938 31.3437 22.8125 31.75C22.5313 32.1562 22.3125 32.8437 22.3125 33.3125C22.3125 33.8125 22.4062 34.4062 22.5625 34.6875C22.6875 34.9687 23.1562 35.4062 23.6562 35.625C24.125 35.875 24.8438 36.0625 25.2812 36.0625C25.7188 36.0625 26.4375 35.7187 26.8438 35.2812C27.4062 34.75 27.625 34.1562 27.625 33.3125C27.625 32.5 27.4375 31.9687 26.9375 31.5C26.5312 31.125 25.875 30.75 25.4375 30.6562C25 30.5625 24.3437 30.625 24 30.75ZM105.906 59.0312C105.406 59.5312 105.146 60.1562 105.125 60.9062C105.125 61.6562 105.344 62.2187 105.906 62.7812C106.438 63.3125 107.031 63.5625 107.781 63.5625C108.562 63.5625 109.125 63.3125 109.656 62.7812C110.188 62.25 110.438 61.6562 110.438 60.9062C110.438 60.1562 110.188 59.5625 109.656 59.0312C109.125 58.5 108.531 58.25 107.781 58.25C107 58.25 106.438 58.5 105.906 59.0312Z" fill="#E6E6E6"/>
</svg>
