<svg width="160" height="88" viewBox="0 0 160 88" fill="none" xmlns="http://www.w3.org/2000/svg">
<mask id="mask0_145_3611" style="mask-type:luminance" maskUnits="userSpaceOnUse" x="0" y="0" width="160" height="88">
<path d="M143.264 20.9229C149.248 32.5861 154.832 49.5785 160 71.9015C159.731 79.5103 156.873 84.4553 151.428 86.7381C145.371 88.7018 140.057 87.9398 135.51 84.4553C124.245 68.4091 117.037 61.1734 113.877 62.7704L45.3067 62.7704C42.1149 64.261 35.3124 71.3602 24.8973 84.0743C19.9989 87.6271 14.6935 88.5113 8.97925 86.7381C3.26503 84.4553 0.269104 79.5103 -6.21742e-07 71.9015C5.1675 49.5785 10.7506 32.5861 16.7339 20.9229C22.4481 10.271 30.4804 4.183 40.8154 2.66219C51.9662 0.888986 65.0366 5.6238e-07 79.9991 6.91763e-07C94.9617 8.21146e-07 108.299 0.895336 119.999 2.66219C130.071 4.183 137.804 10.2773 143.264 20.9229Z" fill="white"/>
</mask>
<g mask="url(#mask0_145_3611)">
<path d="M179.548 -30.3193L-16.3201 -30.3193L-16.3201 112.554L179.548 112.554L179.548 -30.3193Z" fill="white"/>
</g>
<mask id="mask1_145_3611" style="mask-type:luminance" maskUnits="userSpaceOnUse" x="32" y="10" width="95" height="43">
<path d="M116.965 12.1592C114.302 12.1592 112.045 13.0843 110.187 14.9501C108.321 17.0714 107.394 19.4733 107.394 22.1287C107.394 24.7841 108.321 27.0428 110.187 28.9086C112.045 30.7666 114.302 31.6995 116.965 31.6995C120.154 31.6995 122.676 30.7666 124.542 28.9086C126.137 27.0428 126.934 24.7841 126.934 22.1287C126.934 19.4733 126.137 17.0714 124.542 14.9501C122.676 13.0843 120.154 12.1592 116.965 12.1592Z" fill="white"/>
<path d="M105.799 33.2942C104.205 31.6994 102.211 30.902 99.8189 30.902C97.4267 30.902 95.4312 31.6994 93.8364 33.2942C92.5048 35.1522 91.8429 37.1457 91.8429 39.2747C91.8429 41.667 92.5048 43.6624 93.8364 45.2572C95.4312 46.5888 97.4267 47.2507 99.8189 47.2507C102.211 47.2507 104.205 46.5888 105.799 45.2572C107.131 43.6624 107.795 41.667 107.795 39.2747C107.795 37.1457 107.131 35.1522 105.799 33.2942Z" fill="white"/>
<path d="M73.8992 31.3005C73.8992 30.2399 73.4986 29.307 72.7012 28.5096C71.9038 27.7122 70.9709 27.3115 69.9103 27.3115L56.7512 27.3115L56.7512 14.5511C56.7512 13.4905 56.3525 12.5576 55.555 11.7602C54.7576 10.9628 53.8248 10.5641 52.7641 10.5641C51.7035 10.5641 50.7687 10.9628 49.9713 11.7602C49.1739 12.5576 48.7752 13.4905 48.7752 14.5511L48.7752 27.3115L36.0147 27.3115C34.9541 27.3115 34.0212 27.7122 33.2238 28.5096C32.4264 29.307 32.0277 30.2399 32.0277 31.3005C32.0277 32.3611 32.4264 33.294 33.2238 34.0914C34.0212 34.8888 34.9541 35.2875 36.0147 35.2875L48.7752 35.2875L48.7752 48.048C48.7752 49.1086 49.1739 50.0434 49.9713 50.8408C50.7687 51.6382 51.7035 52.0369 52.7641 52.0369C53.8248 52.0369 54.7576 51.6382 55.555 50.8408C56.3525 50.0434 56.7512 49.1086 56.7512 48.048L56.7512 35.2875L69.9103 35.2875C70.9709 35.2875 71.9038 34.8888 72.7012 34.0914C73.4986 33.294 73.8992 32.3611 73.8992 31.3005Z" fill="white"/>
</mask>
<g mask="url(#mask1_145_3611)">
<path d="M193.386 -44.5264L-29.1907 -44.5264L-29.1907 129.664H193.386V-44.5264Z" fill="#70C217"/>
</g>
</svg>
