<svg width="24" height="24" viewBox="0 0 24 24" fill="none" xmlns="http://www.w3.org/2000/svg">
<g clip-path="url(#clip0_336_8176)">
<path d="M20.1 6.6589C18.29 6.6589 17.55 5.3789 18.45 3.8089C18.97 2.8989 18.66 1.7389 17.75 1.2189L16.02 0.228901C15.23 -0.241099 14.21 0.0389014 13.74 0.828901L13.63 1.0189C12.73 2.5889 11.25 2.5889 10.34 1.0189L10.23 0.828901C10.1222 0.639883 9.97789 0.47419 9.80545 0.341466C9.63302 0.208743 9.43591 0.111638 9.2256 0.0558027C9.01529 -3.23281e-05 8.79597 -0.0134826 8.58041 0.0162345C8.36485 0.0459517 8.15736 0.118243 7.97 0.228901L6.24 1.2189C5.33 1.7389 5.02 2.9089 5.54 3.8189C6.45 5.3789 5.71 6.6589 3.9 6.6589C2.86 6.6589 2 7.5089 2 8.5589V10.3189C2 11.3589 2.85 12.2189 3.9 12.2189C5.71 12.2189 6.45 13.4989 5.54 15.0689C5.02 15.9789 5.33 17.1389 6.24 17.6589L7.97 18.6489C8.76 19.1189 9.78 18.8389 10.25 18.0489L10.36 17.8589C11.26 16.2889 12.74 16.2889 13.65 17.8589L13.76 18.0489C14.23 18.8389 15.25 19.1189 16.04 18.6489L17.77 17.6589C18.68 17.1389 18.99 15.9689 18.47 15.0689C17.56 13.4989 18.3 12.2189 20.11 12.2189C21.15 12.2189 22.01 11.3689 22.01 10.3189V8.5589C22.0048 8.05489 21.8015 7.57315 21.4442 7.21767C21.0868 6.8622 20.604 6.6615 20.1 6.6589ZM12 12.6889C10.21 12.6889 8.75 11.2289 8.75 9.4389C8.75 7.6489 10.21 6.1889 12 6.1889C13.79 6.1889 15.25 7.6489 15.25 9.4389C15.25 11.2289 13.79 12.6889 12 12.6889Z" fill="#A5A5A5"/>
</g>
<defs>
<clipPath id="clip0_336_8176">
<rect width="24" height="24" fill="white"/>
</clipPath>
</defs>
</svg>
