<svg width="26" height="28" viewBox="0 0 26 28" fill="none" xmlns="http://www.w3.org/2000/svg">
<path d="M13.2488 13.8376L23.6089 7.62872C23.2794 6.4376 22.6111 5.39389 21.702 4.65081C20.793 3.90772 19.691 3.50438 18.558 3.5H7.93961C6.80656 3.50438 5.70463 3.90772 4.79556 4.65081C3.88649 5.39389 3.21816 6.4376 2.88867 7.62872L13.2488 13.8376Z" fill="#A5A5A5"/>
<path d="M13.7578 16.1909C13.6018 16.2844 13.4269 16.3334 13.2492 16.3334C13.0715 16.3334 12.8966 16.2844 12.7406 16.1909L2.63086 10.1321V18.6667C2.63252 20.2133 3.19241 21.6959 4.18771 22.7895C5.18302 23.8831 6.53247 24.4982 7.94004 24.5H18.5584C19.966 24.4982 21.3154 23.8831 22.3107 22.7895C23.306 21.6959 23.8659 20.2133 23.8676 18.6667V10.1321L13.7578 16.1909Z" fill="#A5A5A5"/>
</svg>
