<svg width="28" height="28" viewBox="0 0 28 28" fill="none" xmlns="http://www.w3.org/2000/svg">
<path d="M27.3416 14.2625C27.3416 13.1669 27.2486 12.3674 27.0475 11.5383H13.9658V16.4832H21.6445C21.4897 17.7121 20.6537 19.5628 18.7959 20.8064L18.7699 20.9719L22.9061 24.0362L23.1926 24.0636C25.8244 21.7391 27.3416 18.3191 27.3416 14.2625Z" fill="#4285F4"/>
<path d="M13.9665 27.2912C17.7284 27.2912 20.8865 26.1067 23.1933 24.0637L18.7966 20.8064C17.62 21.5911 16.0409 22.1389 13.9665 22.1389C10.282 22.1389 7.15478 19.8145 6.04003 16.6018L5.87663 16.6151L1.57578 19.7982L1.51953 19.9477C3.81073 24.3005 8.51704 27.2912 13.9665 27.2912Z" fill="#34A853"/>
<path d="M6.03986 16.6017C5.74572 15.7726 5.5755 14.8843 5.5755 13.9664C5.5755 13.0484 5.74572 12.1601 6.02439 11.331L6.01659 11.1544L1.66185 7.92017L1.51937 7.98498C0.575052 9.79125 0.0332031 11.8196 0.0332031 13.9664C0.0332031 16.1131 0.575052 18.1414 1.51937 19.9477L6.03986 16.6017Z" fill="#FBBC05"/>
<path d="M13.9665 5.79381C16.5828 5.79381 18.3476 6.87459 19.3539 7.77777L23.2861 4.10604C20.8711 1.95928 17.7284 0.641602 13.9665 0.641602C8.51704 0.641602 3.81073 3.63225 1.51953 7.98497L6.02455 11.331C7.15478 8.11826 10.282 5.79381 13.9665 5.79381Z" fill="#EB4335"/>
</svg>
